<svg xmlns="http://www.w3.org/2000/svg" width="64" height="64" fill="none" viewBox="0 0 64 64"><rect width="48" height="48" x="8" y="8" fill="url(#paint0_linear)" rx="8"/><g filter="url(#filter0_if)"><rect width="48" height="48" x="8" y="8" fill="#fff" fill-opacity=".08" rx="8"/></g><g filter="url(#filter1_if)"><rect width="48" height="48" x="8" y="8" fill="#fff" fill-opacity=".08" rx="8"/></g><g filter="url(#filter2_i)"><path fill="#fff" d="M44.9921 42.4983C43.1261 39.2845 40.1379 36.8741 36.6021 35.7305C38.296 34.7226 39.6122 33.1865 40.3485 31.3581C41.0848 29.5297 41.2005 27.5101 40.6779 25.6096C40.1552 23.7091 39.0231 22.0327 37.4554 20.8379C35.8877 19.6431 33.9711 18.996 32 18.996C30.0289 18.996 28.1123 19.6431 26.5446 20.8379C24.9769 22.0327 23.8448 23.7091 23.3222 25.6096C22.7995 27.5101 22.9152 29.5297 23.6515 31.3581C24.3878 33.1865 25.704 34.7226 27.3979 35.7305C23.8622 36.8741 20.8741 39.2844 19.0081 42.4981C18.9202 42.6501 18.8738 42.8225 18.8737 42.9982C18.8735 43.1738 18.9197 43.3463 19.0074 43.4984C19.0951 43.6506 19.2214 43.7769 19.3735 43.8648C19.5255 43.9526 19.698 43.9988 19.8737 43.9988L44.1265 43.9991C44.3022 43.9991 44.4747 43.9529 44.6267 43.865C44.7788 43.7772 44.9051 43.6508 44.9928 43.4987C45.0805 43.3466 45.1267 43.174 45.1265 42.9984C45.1264 42.8228 45.08 42.6503 44.9921 42.4983L44.9921 42.4983Z"/></g><defs><filter id="filter0_if" width="56" height="56" x="4" y="4" color-interpolation-filters="sRGB" filterUnits="userSpaceOnUse"><feFlood flood-opacity="0" result="BackgroundImageFix"/><feBlend in="SourceGraphic" in2="BackgroundImageFix" result="shape"/><feColorMatrix in="SourceAlpha" result="hardAlpha" values="0 0 0 0 0 0 0 0 0 0 0 0 0 0 0 0 0 0 127 0"/><feMorphology in="SourceAlpha" radius="1" result="effect1_innerShadow"/><feOffset dx="4" dy="4"/><feGaussianBlur stdDeviation="4"/><feComposite in2="hardAlpha" k2="-1" k3="1" operator="arithmetic"/><feColorMatrix values="0 0 0 0 1 0 0 0 0 1 0 0 0 0 1 0 0 0 0.32 0"/><feBlend in2="shape" result="effect1_innerShadow"/><feGaussianBlur result="effect2_foregroundBlur" stdDeviation="2"/></filter><filter id="filter1_if" width="56" height="56" x="4" y="4" color-interpolation-filters="sRGB" filterUnits="userSpaceOnUse"><feFlood flood-opacity="0" result="BackgroundImageFix"/><feBlend in="SourceGraphic" in2="BackgroundImageFix" result="shape"/><feColorMatrix in="SourceAlpha" result="hardAlpha" values="0 0 0 0 0 0 0 0 0 0 0 0 0 0 0 0 0 0 127 0"/><feMorphology in="SourceAlpha" radius="1" result="effect1_innerShadow"/><feOffset dx="-4" dy="-4"/><feGaussianBlur stdDeviation="4"/><feComposite in2="hardAlpha" k2="-1" k3="1" operator="arithmetic"/><feColorMatrix values="0 0 0 0 1 0 0 0 0 1 0 0 0 0 1 0 0 0 0.32 0"/><feBlend in2="shape" result="effect1_innerShadow"/><feGaussianBlur result="effect2_foregroundBlur" stdDeviation="2"/></filter><filter id="filter2_i" width="27.253" height="26.003" x="17.874" y="17.996" color-interpolation-filters="sRGB" filterUnits="userSpaceOnUse"><feFlood flood-opacity="0" result="BackgroundImageFix"/><feBlend in="SourceGraphic" in2="BackgroundImageFix" result="shape"/><feColorMatrix in="SourceAlpha" result="hardAlpha" values="0 0 0 0 0 0 0 0 0 0 0 0 0 0 0 0 0 0 127 0"/><feOffset dx="-1" dy="-1"/><feGaussianBlur stdDeviation="1"/><feComposite in2="hardAlpha" k2="-1" k3="1" operator="arithmetic"/><feColorMatrix values="0 0 0 0 0 0 0 0 0 0 0 0 0 0 0 0 0 0 0.16 0"/><feBlend in2="shape" result="effect1_innerShadow"/></filter><linearGradient id="paint0_linear" x1="8" x2="56" y1="8" y2="56" gradientUnits="userSpaceOnUse"><stop stop-color="#00E0FF"/><stop offset="1" stop-color="#0047FF"/></linearGradient></defs></svg>