<svg id="Calque_1" data-name="Calque 1" xmlns="http://www.w3.org/2000/svg" viewBox="0 0 595.28 841.89"><defs><style>.cls-1{fill:#1b2827;}.cls-2{fill:#405454;}</style></defs><path class="cls-1" d="M287.53,498.1v4a32.57,32.57,0,0,0-10,1.5,7.5,7.5,0,0,0-4.6,4.8q-1.2,3.51-1.2,10.9v99.2q0,7.2,1.2,10.8a7.2,7.2,0,0,0,4.6,4.8,38.52,38.52,0,0,0,10,1.6v4q-4.8-.39-12.1-.5t-14.9-.1q-8.4,0-15.7.1t-11.9.5v-4a39.4,39.4,0,0,0,10.2-1.6,7,7,0,0,0,4.5-4.8,39.68,39.68,0,0,0,1.1-10.8V519.3q0-7.39-1.2-10.9a7.52,7.52,0,0,0-4.6-4.8,32.63,32.63,0,0,0-10-1.5v-4q4.59.21,11.9.4t15.7.2q7.59,0,14.9-.2T287.53,498.1Z"/><path class="cls-2" d="M311.92,498.5c3.34.14,6.67.2,10,.2s7.2-.06,11.2-.2,7.21-.26,9.61-.4v4q-8,.4-12,2.5a10.43,10.43,0,0,0-5.31,6.7,51.64,51.64,0,0,0-1.3,13.2v78l73-104.4q3.21.21,7.41.4c2.8.14,5.66.2,8.59.2,3.34,0,6.67-.06,10-.2s6.07-.26,8.21-.4v4a32.52,32.52,0,0,0-10,1.5,7.5,7.5,0,0,0-4.6,4.8c-.81,2.34-1.2,6-1.2,10.9v94.8a51.54,51.54,0,0,0,1.2,12.6,9.8,9.8,0,0,0,4.6,6.5q3.39,1.9,10,2.5v4c-2.14-.26-4.87-.43-8.21-.5s-6.66-.1-10-.1-7.16,0-11.09.1-7.17.24-9.7.5v-4q8.19-.6,12.2-2.6a9.8,9.8,0,0,0,5.2-6.7,55.69,55.69,0,0,0,1.19-13.1v-96l-84.8,123.2h-6.59V523.7a56,56,0,0,0-1.11-12.7,9.82,9.82,0,0,0-4.5-6.5q-3.39-2-10.19-2.4v-4Q306.93,498.31,311.92,498.5Z"/></svg>